<svg width="30" height="30" viewBox="0 0 30 30" fill="none" xmlns="http://www.w3.org/2000/svg">
<rect width="30" height="30" fill="#C7F284" fill-opacity="0.1"/>
<path d="M20.3332 21C20.3332 20.0696 20.3332 19.6044 20.2183 19.2259C19.9598 18.3736 19.2929 17.7067 18.4406 17.4482C18.0621 17.3333 17.5969 17.3333 16.6665 17.3333H13.3332C12.4028 17.3333 11.9376 17.3333 11.5591 17.4482C10.7068 17.7067 10.0399 18.3736 9.78133 19.2259C9.6665 19.6044 9.6665 20.0696 9.6665 21M17.9998 12C17.9998 13.6569 16.6567 15 14.9998 15C13.343 15 11.9998 13.6569 11.9998 12C11.9998 10.3431 13.343 9 14.9998 9C16.6567 9 17.9998 10.3431 17.9998 12Z" stroke="#C7F284" stroke-width="1.2" stroke-linecap="round" stroke-linejoin="round"/>
</svg>
